<svg version="1.1" id="Layer_1" xmlns="http://www.w3.org/2000/svg" x="0" y="0" viewBox="0 0 219.92 288.08" xml:space="preserve"><style>.st0{fill:#b5b5b6;stroke:#000;stroke-width:4;stroke-linejoin:round;stroke-miterlimit:10}</style><path class="st0" d="M215.92 286.08H4L2 2h215.92z"/><path class="st0" d="M45.31 266.97L4 286.08 2 2l43.31 100zM174.61 266.97l41.31 19.11 2-284.08-43.31 100z"/><path d="M118.03 117.47h-16.15c-2.23 0-4.03-1.8-4.03-4.03v-9.78c0-2.23 1.8-4.03 4.03-4.03h16.15c2.23 0 4.03 1.8 4.03 4.03v9.78c0 2.23-1.8 4.03-4.03 4.03z" fill="#b5b5b6" stroke="#f4f4f5" stroke-width="4" stroke-linejoin="round" stroke-miterlimit="10"/><path class="st0" d="M45.31 266.97h129.3M217.92 2H2l50.64 100.64h114.65z"/></svg>