<svg xmlns="http://www.w3.org/2000/svg" viewBox="0 0 229.54 288.08"><style>.st1,.st3,.st4{stroke:#000;stroke-linejoin:round;stroke-miterlimit:10}.st1{display:inline;fill:#b5b5b6;stroke-width:4}.st3,.st4{fill:#80c34d;stroke-width:3}.st4{fill:#bcdc97}.st6{fill:#e7e515}.st7{fill:#f7901e}.st8{fill:#fff}</style><g id="Layer_2"><path class="st3" d="M181.81 286.08H47.73c-10.64 0-19.27-8.63-19.27-19.27V21.27C28.46 10.63 37.09 2 47.73 2h134.08c10.64 0 19.27 8.63 19.27 19.27v245.54c-.01 10.64-8.63 19.27-19.27 19.27z"/><path class="st4" d="M160.24 266.51H69.3c-6.6 0-12-5.4-12-12l3-184.88c0-6.6 2.4-12 9-12h90.94c6.6 0 9 5.4 9 12l3 184.88c0 6.6-5.4 12-12 12z"/><path class="st4" d="M126.99 131.53h-24.44c-51.52 0-74.09-106.13-74.09-106.13C28.46 12.48 37.04 2 47.61 2h134.32c10.57 0 19.15 10.48 19.15 23.4-.01 0-25.54 106.13-74.09 106.13z"/><path class="st3" d="M126.37 111.72h-23.19C59.63 111 32.87 23.66 32.87 23.66 32.87 11.7 41 2 51.04 2h127.48c10.04 0 18.17 9.7 18.17 21.66-.01 0-28.41 88.06-70.32 88.06zM31.43 245.37H13.5c-6.6 0-12-5.4-12-12v-73.65c0-6.6 5.4-12 12-12h17.93c6.6 0 12 5.4 12 12v73.65c0 6.6-5.4 12-12 12zM216.04 245.37h-17.93c-6.6 0-12-5.4-12-12v-73.65c0-6.6 5.4-12 12-12h17.93c6.6 0 12 5.4 12 12v73.65c0 6.6-5.4 12-12 12z"/><path d="M142.5 77.34h0c-4.63-.5-8.77 2.35-9.21 6.33l-1.43 13.2c-.22 1.99-1.85 14.64.26 14.12 3.79-.93 5.55-2.36 8.48-3.54l2.17-1.35c4.05-2.52 5.5-3.42 5.93-7.4l1.43-13.2c.44-3.99-2.99-7.66-7.63-8.16z" fill="#ed2024" stroke="#000" stroke-width="3" stroke-linejoin="round" stroke-miterlimit="10"/><circle class="st6" cx="134.46" cy="54.44" r="15.06"/><circle class="st7" cx="134.46" cy="55.45" r="13.15"/><circle cx="134.46" cy="56.78" r="9.99"/><ellipse class="st8" cx="134.05" cy="58.8" rx="3" ry="4.33"/><g><circle class="st6" cx="91.74" cy="55.37" r="14.97"/><circle class="st7" cx="91.74" cy="56.36" r="13.07"/><circle cx="91.74" cy="57.7" r="9.92"/><ellipse class="st8" cx="91.33" cy="59.7" rx="2.98" ry="4.3"/></g></g></svg>